<?xml version="1.0" encoding="utf-8"?>
<!-- Generator: Adobe Illustrator 23.0.4, SVG Export Plug-In . SVG Version: 6.00 Build 0)  -->
<svg version="1.1" id="Layer_1" xmlns="http://www.w3.org/2000/svg" xmlns:xlink="http://www.w3.org/1999/xlink" x="0px" y="0px"
	 viewBox="0 0 1080 811" style="enable-background:new 0 0 1080 811;" xml:space="preserve">
<style type="text/css">
	.st0{fill:none;stroke:#D3D3D3;stroke-width:0.5;stroke-linecap:square;stroke-linejoin:round;}
	.st1{fill:none;}
	.st2{fill:#B9C1C6;}
	.st3{fill:#C51B8A;}
	.st4{font-family:'ArialMT';}
	.st5{font-size:18px;}
	.st6{font-size:21px;}
	.st7{font-size:36px;}
	.st8{fill:#F768A1;}
	.st9{fill:none;stroke:#F768A1;stroke-miterlimit:10;stroke-dasharray:12.011,12.0111;}
</style>
<g>
	<path class="st0" d="M135,629.8h837"/>
	<path class="st0" d="M135,529.5h837"/>
	<path class="st0" d="M135,329.1h837"/>
	<path class="st0" d="M135,429.3h837"/>
	<rect x="135" y="240.7" class="st1" width="837" height="489.2"/>
</g>
<g id="patch_3">
	<rect x="135" y="240.7" class="st1" width="837" height="489.2"/>
	<path class="st2" d="M146,730h22v-0.7h-22V730z"/>
</g>
<g id="patch_4">
	<rect x="135" y="240.7" class="st1" width="837" height="489.2"/>
	<path class="st2" d="M190.1,730h22v-0.5h-22V730z"/>
</g>
<g id="patch_5">
	<rect x="135" y="240.7" class="st1" width="837" height="489.2"/>
	<path class="st2" d="M234.1,730h22v-1h-22V730z"/>
</g>
<g id="patch_6">
	<rect x="135" y="240.7" class="st1" width="837" height="489.2"/>
	<path class="st2" d="M278.2,730h22v-0.7h-22V730z"/>
</g>
<g id="patch_7">
	<rect x="135" y="240.7" class="st1" width="837" height="489.2"/>
	<path class="st2" d="M322.2,730h22v-2h-22V730z"/>
</g>
<g id="patch_8">
	<rect x="135" y="240.7" class="st1" width="837" height="489.2"/>
	<path class="st2" d="M366.3,730h22v-20h-22V730z"/>
</g>
<g id="patch_9">
	<rect x="135" y="240.7" class="st1" width="837" height="489.2"/>
	<path class="st2" d="M410.3,730h22v-2h-22V730z"/>
</g>
<g id="patch_10">
	<rect x="135" y="240.7" class="st1" width="837" height="489.2"/>
	<path class="st2" d="M454.4,730h22v-3.6h-22V730z"/>
</g>
<g id="patch_11">
	<rect x="135" y="240.7" class="st1" width="837" height="489.2"/>
	<path class="st2" d="M498.4,730h22v-7.7h-22L498.4,730L498.4,730z"/>
</g>
<g id="patch_12">
	<rect x="135" y="240.7" class="st1" width="837" height="489.2"/>
	<path class="st2" d="M542.5,730h22v-7h-22V730z"/>
</g>
<g id="patch_13">
	<rect x="135" y="240.7" class="st1" width="837" height="489.2"/>
	<path class="st2" d="M586.5,730h22v-45.8h-22V730z"/>
</g>
<g id="patch_14">
	<rect x="135" y="240.7" class="st1" width="837" height="489.2"/>
	<path class="st2" d="M630.6,730h22v-48.7h-22V730z"/>
</g>
<g id="patch_15">
	<rect x="135" y="240.7" class="st1" width="837" height="489.2"/>
	<path class="st2" d="M674.6,730h22v-74.3h-22V730z"/>
</g>
<g id="patch_16">
	<rect x="135" y="240.7" class="st1" width="837" height="489.2"/>
	<path class="st2" d="M718.7,730h22V587.4h-22V730z"/>
</g>
<g id="patch_17">
	<rect x="135" y="240.7" class="st1" width="837" height="489.2"/>
	<path class="st2" d="M762.8,730h22V602.8h-22V730z"/>
</g>
<g id="patch_18">
	<rect x="135" y="240.7" class="st1" width="837" height="489.2"/>
	<path class="st2" d="M806.8,730h22V576.4h-22V730z"/>
</g>
<g id="patch_19">
	<rect x="135" y="240.7" class="st1" width="837" height="489.2"/>
	<path class="st3" d="M850.9,730h22V264h-22V730z"/>
</g>
<g id="patch_20">
	<rect x="135" y="240.7" class="st1" width="837" height="489.2"/>
	<path class="st2" d="M894.9,730h22V432.1h-22V730z"/>
</g>
<g id="patch_21">
	<rect x="135" y="240.7" class="st1" width="837" height="489.2"/>
	<path class="st3" d="M939,730h22v-54h-22V730z"/>
</g>
<rect x="135" y="240.7" class="st1" width="837" height="489.2"/>
<path class="st0" d="M135,730h837"/>
<rect x="135" y="240.7" class="st1" width="837" height="489.2"/>
<rect x="135" y="240.7" class="st1" width="837" height="489.2"/>
<g>
	<text transform="matrix(1 0 0 1 107.0957 326.5675)" class="st4 st5">40</text>
	<text transform="matrix(1 0 0 1 107.0957 348.1675)" class="st4 st5">billion</text>
	<text transform="matrix(1 0 0 1 107.0955 435.118)" class="st4 st5">30</text>
	<text transform="matrix(1 0 0 1 107.0959 536.2326)" class="st4 st5">20</text>
	<text transform="matrix(1 0 0 1 107.0958 637.7003)" class="st4 st5">10</text>
	<text transform="matrix(1 0 0 1 117.5699 736.1907)" class="st4 st5">0</text>
</g>
<g>
	<text transform="matrix(1 0 0 1 841.2231 753.0651)" class="st4 st6">2016</text>
	<text transform="matrix(1 0 0 1 928.4935 751.4592)" class="st4 st6">2018</text>
	<text transform="matrix(1 0 0 1 664.2507 750.702)" class="st4 st6">2012</text>
	<text transform="matrix(1 0 0 1 487.5403 751.7929)" class="st4 st6">2008</text>
	<text transform="matrix(1 0 0 1 313.9139 749.4618)" class="st4 st6">2004</text>
	<text transform="matrix(1 0 0 1 179.1638 748.8705)" class="st4 st6">2001</text>
</g>
<image style="overflow:visible;enable-background:new    ;" width="200" height="240" xlink:href="barack_obama_PNG37.png"  transform="matrix(0.3592 0 0 0.3592 518.5055 181.5241)">
</image>
<image style="overflow:visible;enable-background:new    ;" width="334" height="346" xlink:href="donald_trump_PNG51.png"  transform="matrix(0.1765 0 0 0.1765 870.9769 365.205)">
</image>
<image style="overflow:visible;enable-background:new    ;" width="289" height="373" xlink:href="george-bush-face-png-9.png"  transform="matrix(0.1705 0 0 0.1705 357.3319 567.4282)">
</image>
<text transform="matrix(1 0 0 1 177.9165 186.5792)" class="st4 st6">China </text>
<text transform="matrix(1 0 0 1 177.9165 211.7792)" class="st4 st6">Entered </text>
<text transform="matrix(1 0 0 1 177.9165 236.9792)" class="st4 st6">WTO</text>
<text transform="matrix(1 0 0 1 932.5061 164.3498)" class="st4 st6"> </text>
<text transform="matrix(1 0 0 1 907.5061 189.5498)" class="st4 st6">Trade </text>
<text transform="matrix(1 0 0 1 907.5061 214.7498)" class="st4 st6">War</text>
<text transform="matrix(1 0 0 1 907.5061 239.9498)" class="st4 st6">Began</text>
<rect x="842.4" y="242" class="st1" width="72.7" height="31.3"/>
<text transform="matrix(1 0 0 1 842.3983 256.911)" class="st4 st6">46.5</text>
<rect x="935.6" y="655.4" class="st1" width="72.7" height="31.3"/>
<text transform="matrix(1 0 0 1 935.645 670.2659)" class="st4 st6">5.4</text>
<rect x="271.2" y="70.2" class="st1" width="600.8" height="160.5"/>
<text transform="matrix(1 0 0 1 271.1987 95.8027)" class="st4 st7">Chinese Investment in US (2000-2018)</text>
<g>
	<line class="st8" x1="200.1" y1="262.5" x2="200" y2="729.7"/>
	<g>
		<line class="st9" x1="200.1" y1="270.7" x2="200" y2="729.7"/>
		<g>
			<path class="st8" d="M200.1,272.5l3.6,2.2l0.1-0.1l-2.3-5.9c-0.5-2-0.9-4.1-1.4-6.1c-0.5,2-0.9,4.1-1.4,6.1l-2.3,5.9l0.1,0.1
				L200.1,272.5z"/>
		</g>
	</g>
</g>
<g>
	<line class="st8" x1="934.2" y1="263.9" x2="934.2" y2="731.1"/>
	<g>
		<line class="st9" x1="934.2" y1="272.1" x2="934.2" y2="731.1"/>
		<g>
			<path class="st8" d="M934.2,273.9l3.6,2.2l0.1-0.1l-2.3-5.9c-0.5-2-0.9-4.1-1.4-6.1c-0.5,2-0.9,4.1-1.4,6.1l-2.3,5.9l0.1,0.1
				L934.2,273.9z"/>
		</g>
	</g>
</g>
</svg>
