<?xml version="1.0" encoding="utf-8"?>
<!-- Generator: Adobe Illustrator 23.0.4, SVG Export Plug-In . SVG Version: 6.00 Build 0)  -->
<svg version="1.1" id="Layer_1" xmlns="http://www.w3.org/2000/svg" xmlns:xlink="http://www.w3.org/1999/xlink" x="0px" y="0px"
	 viewBox="0 0 864 576" style="enable-background:new 0 0 864 576;" xml:space="preserve">
<style type="text/css">
	.st0{fill:#FBB4B9;}
	.st1{fill:none;}
	.st2{fill:#1F77B4;}
	.st3{fill:none;stroke:#D3D3D3;stroke-width:0.5;stroke-linecap:square;stroke-linejoin:round;}
	.st4{fill:none;stroke:#000000;stroke-width:0.8;stroke-linecap:square;}
	.st5{font-family:'MyriadPro-Regular';}
	.st6{font-size:18px;}
	.st7{font-size:21px;}
</style>
<rect x="725.5" y="5.8" class="st0" width="64.9" height="498.5"/>
<rect x="108" y="69.1" class="st1" width="669.6" height="434.9"/>
<path class="st2" d="M120.9,504h25.8v-1.8h-25.8V504z"/>
<rect x="108" y="69.1" class="st1" width="669.6" height="434.9"/>
<path class="st2" d="M172.4,504h25.8v-3.2h-25.8V504z"/>
<rect x="108" y="69.1" class="st1" width="669.6" height="434.9"/>
<path class="st2" d="M223.9,504h25.8v-6.9h-25.8V504z"/>
<rect x="108" y="69.1" class="st1" width="669.6" height="434.9"/>
<path class="st2" d="M275.4,504h25.8v-6.3h-25.8V504z"/>
<rect x="108" y="69.1" class="st1" width="669.6" height="434.9"/>
<path class="st2" d="M326.9,504h25.8v-40.7h-25.8V504z"/>
<rect x="108" y="69.1" class="st1" width="669.6" height="434.9"/>
<path class="st2" d="M378.4,504h25.8v-43.3h-25.8V504z"/>
<rect x="108" y="69.1" class="st1" width="669.6" height="434.9"/>
<path class="st2" d="M429.9,504h25.8v-66h-25.8V504z"/>
<rect x="108" y="69.1" class="st1" width="669.6" height="434.9"/>
<path class="st2" d="M481.4,504h25.8V377.2h-25.8V504z"/>
<rect x="108" y="69.1" class="st1" width="669.6" height="434.9"/>
<path class="st2" d="M532.9,504h25.8V390.9h-25.8V504z"/>
<rect x="108" y="69.1" class="st1" width="669.6" height="434.9"/>
<path class="st2" d="M584.4,504h25.8V367.5h-25.8V504z"/>
<rect x="108" y="69.1" class="st1" width="669.6" height="434.9"/>
<path class="st2" d="M636,504h25.8V89.8H636V504z"/>
<rect x="108" y="69.1" class="st1" width="669.6" height="434.9"/>
<path class="st2" d="M687.5,504h25.8V239.2h-25.8V504z"/>
<rect x="108" y="69.1" class="st1" width="669.6" height="434.9"/>
<path class="st2" d="M739,504h25.8v-48H739V504z"/>
<g id="ytick_1">
	<g id="line2d_1">
		<rect x="108" y="69.1" class="st1" width="669.6" height="434.9"/>
		<path class="st3" d="M108,504h669.6"/>
	</g>
</g>
<g id="ytick_2">
	<g id="line2d_3">
		<rect x="108" y="69.1" class="st1" width="669.6" height="434.9"/>
		<path class="st3" d="M108,414.9h669.6"/>
	</g>
</g>
<g id="ytick_3">
	<g id="line2d_5">
		<rect x="108" y="69.1" class="st1" width="669.6" height="434.9"/>
		<path class="st3" d="M108,325.8h669.6"/>
	</g>
</g>
<g id="ytick_4">
	<g id="line2d_7">
		<rect x="108" y="69.1" class="st1" width="669.6" height="434.9"/>
		<path class="st3" d="M108,236.7h669.6"/>
	</g>
</g>
<g id="line2d_9">
	<rect x="108" y="69.1" class="st1" width="669.6" height="434.9"/>
	<path class="st3" d="M108,147.6h669.6"/>
</g>
<path class="st4" d="M108,504h669.6"/>
<g>
	<g>
		<text transform="matrix(1 0 0 1 80.5963 154.3179)"><tspan x="0" y="0" class="st5 st6">40</tspan><tspan x="0" y="21.6" class="st5 st6">bln</tspan></text>
		<text transform="matrix(1 0 0 1 80.5961 242.8684)" class="st5 st6">30</text>
		<text transform="matrix(1 0 0 1 80.5964 332.983)" class="st5 st6">20</text>
		<text transform="matrix(1 0 0 1 80.5963 420.4507)" class="st5 st6">10</text>
	</g>
	<text transform="matrix(1 0 0 1 91.0704 508.9411)" class="st5 st6">0</text>
</g>
<g>
	<text transform="matrix(1 0 0 1 627.8818 526.9978)" class="st5 st7">2016</text>
	<text transform="matrix(1 0 0 1 731.152 525.3919)" class="st5 st7">2018</text>
	<text transform="matrix(1 0 0 1 525.056 525.3919)" class="st5 st7">2014</text>
	<text transform="matrix(1 0 0 1 420.9093 524.6346)" class="st5 st7">2012</text>
	<text transform="matrix(1 0 0 1 318.1389 524.8774)" class="st5 st7">2010</text>
	<text transform="matrix(1 0 0 1 217.1989 525.7256)" class="st5 st7">2008</text>
	<text transform="matrix(1 0 0 1 112.1811 523.817)" class="st5 st7">2006</text>
</g>
</svg>
