<svg id="Layer_1" data-name="Layer 1" xmlns="http://www.w3.org/2000/svg" viewBox="0 0 1442.08 456.16"><defs><style>.cls-1,.cls-2,.cls-4,.cls-5,.cls-6,.cls-7{fill:none;stroke-linecap:square;}.cls-1,.cls-2{stroke:#979797;}.cls-1,.cls-2,.cls-7{stroke-miterlimit:10;stroke-width:0.8px;}.cls-2{stroke-dasharray:12.13 12.13;}.cls-3{font-size:18px;}.cls-10,.cls-14,.cls-3{font-family:ArialMT, Arial;}.cls-4{stroke:#e0843f;}.cls-4,.cls-5,.cls-6{stroke-linejoin:round;stroke-width:2px;}.cls-5{stroke:#79d32a;}.cls-6{stroke:#d8d832;}.cls-7{stroke:#000;}.cls-8{letter-spacing:-0.02em;}.cls-9{letter-spacing:-0.09em;}.cls-10{font-size:26.07px;}.cls-11{letter-spacing:-0.06em;}.cls-12{letter-spacing:-0.02em;}.cls-13{letter-spacing:-0.09em;}.cls-14{font-size:21px;fill:#4d4f4e;}.cls-15{fill:#ea1d13;}.cls-16{fill:#e0843f;}.cls-17{fill:#d8d832;}.cls-18{fill:#79d32a;}.cls-19{letter-spacing:-0.06em;}</style></defs><title>PM2.5_month</title><line class="cls-1" x1="194.74" y1="386.16" x2="200.75" y2="386.16"/><line class="cls-2" x1="212.88" y1="386.16" x2="1298.67" y2="386.16"/><line class="cls-1" x1="1304.74" y1="386.16" x2="1310.74" y2="386.16"/><line class="cls-1" x1="194.8" y1="320.58" x2="200.81" y2="320.58"/><line class="cls-2" x1="212.94" y1="320.58" x2="1298.73" y2="320.58"/><line class="cls-1" x1="1304.8" y1="320.58" x2="1310.8" y2="320.58"/><line class="cls-1" x1="194.9" y1="255.11" x2="200.91" y2="255.11"/><line class="cls-2" x1="213.04" y1="255.11" x2="1298.83" y2="255.11"/><line class="cls-1" x1="1304.9" y1="255.11" x2="1310.9" y2="255.11"/><text class="cls-3" transform="translate(191.45 449.99)">2010</text><text class="cls-3" transform="translate(323.73 449.99)">2011</text><text class="cls-3" transform="translate(483.18 449.99)">2012</text><text class="cls-3" transform="translate(655.64 449.99)">2013</text><text class="cls-3" transform="translate(829.1 449.99)">2014</text><text class="cls-3" transform="translate(989.56 449.99)">2015</text><text class="cls-3" transform="translate(1143.02 449.99)">2016</text><text class="cls-3" transform="translate(159.91 389.83)">25</text><line x1="194.63" y1="353.28" x2="191.13" y2="353.28"/><text class="cls-3" transform="translate(159.91 324.33)">75</text><line x1="194.63" y1="287.78" x2="191.13" y2="287.78"/><text class="cls-3" transform="translate(153.55 258.83)">125</text><line x1="194.63" y1="222.28" x2="191.13" y2="222.28"/><polyline class="cls-4" points="194.63 300.88 208.07 291.71 221.52 295.64 234.97 313.98 248.41 304.81 261.86 275.99 275.3 257.65 288.75 290.4 302.19 257.65 315.64 262.89 329.08 238 342.53 291.71 355.98 359.83 369.42 222.28 382.87 342.8 396.31 298.26 409.76 333.63 423.21 275.99 436.65 278.61 450.1 282.54 463.54 294.33 476.99 227.52 490.44 275.99 503.88 275.99 517.33 262.89 530.77 308.74 544.22 293.02 557.66 303.5 571.11 299.57 584.55 291.71 598 312.67 611.45 312.67 624.89 340.18 638.34 294.33 651.78 304.81 665.23 275.99 678.68 165.95 692.12 256.34 705.57 257.65 719.01 332.32 732.46 307.43 745.9 273.37 759.35 328.39 772.8 337.56 786.24 299.57 799.69 278.61 813.13 299.57 826.58 289.09 840.02 262.89 853.47 189.53 866.92 274.68 880.36 294.33 893.81 324.46 907.25 341.49 920.7 300.88 934.15 336.25 947.59 327.08 961.04 234.07 974.48 282.54 987.93 315.29 1001.37 277.3 1014.82 291.71 1028.27 302.19 1041.71 315.29 1055.16 340.18 1068.6 348.04 1082.05 346.73 1095.49 359.83 1108.94 357.21 1122.39 324.46 1135.83 255.03 1149.28 206.56 1162.72 324.46 1176.17 361.14 1189.62 296.95 1203.06 332.32 1216.51 346.73 1229.95 341.49 1243.4 341.49 1256.84 367.69 1270.29 350.66 1283.74 311.36 1297.18 281.23 1310.63 228.83"/><polyline class="cls-5" points="194.63 398.79 208.07 404.68 221.52 406.87 234.97 407.17 248.41 407.28 261.86 405.35 275.3 404.66 288.75 407.3 302.19 407.83 315.64 410.07 329.08 406.92 342.53 404.37 355.98 399.02 369.42 401.66 382.87 408.81 396.31 406.62 409.76 409.83 423.21 409.13 517.33 402.95 530.77 404.06 544.22 406 557.66 410.08 571.11 407.24 584.55 407.48 598 405.76 611.45 405.62 624.89 409.09 638.34 406.12 651.78 400.46 665.23 398.95 678.68 395.76 692.12 399.9 705.57 408.3 719.01 408.16 732.46 407.29 745.9 407.65 759.35 404.14 772.8 407.05 786.24 410.07 799.69 406.46 813.13 408.32 826.58 400.42 840.02 399.15 853.47 399.08 866.92 404.88 880.36 409.15 893.81 408.39 907.25 409.66 920.7 407.55 934.15 409.11 947.59 408.57 961.04 410.17 974.48 407.24 987.93 404.6 1001.37 401.51 1014.82 400.63 1028.27 405.02 1041.71 410.04 1055.16 407.22 1068.6 408.88 1082.05 405.07 1095.49 408.91 1108.94 407.93 1122.39 410.35 1135.83 407.05 1149.28 403.16 1162.72 403.69 1176.17 405.3 1189.62 407.85 1203.06 410.23 1216.51 408.95 1229.95 409.54 1243.4 408.2 1256.84 409.93 1270.29 410.46 1283.74 409.16 1297.18 407.7 1310.63 405.46"/><polyline class="cls-6" points="342.53 329.58 355.98 334.37 369.42 349.26 382.87 330.64 396.31 347.95 409.76 347.98 423.21 366.22 436.65 383.77 450.1 397.73 463.54 360.84 476.99 346.19 490.44 329.94 503.88 334.4 517.33 284.93 530.77 334.47 544.22 333.63 557.66 337.86 571.11 349.06 584.55 360.79 598 377.22 611.45 384.33 624.89 382.3 638.34 371.39 651.78 315.13 665.23 258.72 678.68 323.63 692.12 350.3 705.57 347.4 719.01 351.08 732.46 338.75 745.9 363.63 759.35 372.84 772.8 380.6 786.24 380.93 799.69 368.06 813.13 348.55 826.58 320.97 840.02 307.92 853.47 331.17 866.92 352.63 880.36 348.69 893.81 365.06 907.25 370.97 920.7 372.36 934.15 371.59 947.59 382.11 961.04 369.3 974.48 345.42 987.93 311.27 1001.37 323.88 1014.82 343.34 1028.27 344.97 1041.71 345.81 1055.16 355.21 1068.6 372.5 1082.05 373.25 1095.49 391.81 1108.94 381.91 1122.39 391.73 1135.83 353.26 1149.28 336.17"/><line class="cls-7" x1="194.63" y1="425.4" x2="1310.63" y2="425.4"/><text class="cls-3" transform="translate(154.12 193.93)">175</text><line class="cls-1" x1="195.01" y1="189.62" x2="201.01" y2="189.62"/><line class="cls-2" x1="213.14" y1="189.62" x2="1298.93" y2="189.62"/><line class="cls-1" x1="1305" y1="189.62" x2="1311.01" y2="189.62"/><text class="cls-3" transform="translate(1292.08 450.31)">2017</text><text class="cls-3" transform="translate(1331.9 224.94)">Beijing</text><text class="cls-3" transform="translate(1331.9 357.64)">Shanghai</text><text class="cls-3" transform="translate(1331.9 405.98)">New<tspan class="cls-8" x="36.01" y="0"> </tspan><tspan class="cls-9" x="40.68" y="0">Y</tspan><tspan x="51.04" y="0">ork</tspan></text><text class="cls-10" transform="translate(356.46 22.37) scale(1.02 1)">Outdoor<tspan class="cls-11" x="94.21" y="0"> </tspan><tspan x="100.01" y="0">Air Quality In Beijing, Shanghai &amp; New</tspan><tspan class="cls-12" x="543.48" y="0"> </tspan><tspan class="cls-13" x="550.25" y="0">Y</tspan><tspan x="565.25" y="0" xml:space="preserve">ork  (2010 - 2016)                                         </tspan></text><text class="cls-14" transform="translate(523.66 65.98)">Measured by average monthly PM2.5 concentration</text><text class="cls-3" transform="translate(114.69 129.52)">μg/m3</text><rect class="cls-15" x="124.64" y="142.96" width="26" height="70.84"/><rect class="cls-16" x="124.64" y="213.81" width="26" height="70.84"/><rect class="cls-17" x="124.64" y="284.65" width="26" height="70.84"/><rect class="cls-18" x="124.64" y="355.5" width="26" height="70.84"/><text class="cls-3" transform="translate(74.93 390.15)">Good</text><text class="cls-3" transform="translate(45.42 323.01)">Moderate</text><text class="cls-3" transform="translate(38.52 257.08)">Unhealthy</text><text class="cls-3" transform="translate(0 192.82)"><tspan class="cls-19">V</tspan><tspan x="11.01" y="0">ery Unhealthy</tspan></text></svg>